<?xml version="1.0" encoding="UTF-8"?>
<svg width="50px" height="50px" viewBox="0 0 50 50" version="1.1" xmlns="http://www.w3.org/2000/svg" xmlns:xlink="http://www.w3.org/1999/xlink">
    <!-- Generator: Sketch 52.1 (67048) - http://www.bohemiancoding.com/sketch -->
    <title>minter-logo-circle</title>
    <desc>Created with Sketch.</desc>
    <g id="minter-logo-circle" stroke="none" stroke-width="1" fill="none" fill-rule="evenodd">
        <g id="Group">
            <circle id="Oval" fill="#CF5C2C" fill-rule="nonzero" cx="25" cy="25" r="25"></circle>
            <path d="M25.0944408,22.0439605 L28.0417731,19.1871183 C28.8050345,18.4472908 30.0425258,18.4472908 30.8057872,19.1871183 C31.5690486,19.9269458 31.5690486,21.1264431 30.8057872,21.8662706 L26.6272824,25.9164854 C26.5831201,25.9697162 26.5355541,26.0211708 26.4845844,26.0705756 C25.7213229,26.8104031 24.4838317,26.8104031 23.7205702,26.0705756 L13.5724461,16.234023 C12.8091846,15.4941955 12.8091846,14.2946981 13.5724461,13.5548706 C14.3357075,12.8150431 15.5731988,12.8150431 16.3364602,13.5548706 L25.0944408,22.0439605 Z M14.9544531,20.6619848 C16.0338678,20.6619848 16.9089063,21.62759 16.9089063,22.8187243 L16.9089063,35.1840312 C16.9089063,36.3751656 16.0338678,37.3407708 14.9544531,37.3407708 C13.8750385,37.3407708 13,36.3751656 13,35.1840312 L13,22.8187243 C13,21.62759 13.8750385,20.6619848 14.9544531,20.6619848 Z M35.5413594,13 C36.6207741,13 37.4958126,13.9252793 37.4958126,15.0666692 L37.4958126,35.2741016 C37.4958126,36.4154915 36.6207741,37.3407708 35.5413594,37.3407708 C34.4619448,37.3407708 33.5869063,36.4154915 33.5869063,35.2741016 L33.5869063,15.0666692 C33.5869063,13.9252793 34.4619448,13 35.5413594,13 Z" id="Combined-Shape" fill="#FFFFFF"></path>
        </g>
    </g>
</svg>